<?xml version="1.0" encoding="UTF-8"?>
<svg xmlns="http://www.w3.org/2000/svg" width="1782" height="1970" viewBox="0 0 1782 1970" role="img" aria-labelledby="title desc">
  <title id="title">So do table diagram tu SQL</title>
  <desc id="desc">Diagram chi gom cac table va cot doc tu schema_gia_su_complete.sql. Khong phai ERD, khong co quan he, khong them doi tuong ngoai table.</desc>
  <style>
    .bg { fill: #f8fafc; }
    .eyebrow { font: 700 12px "Segoe UI", Arial, sans-serif; fill: #2563eb; letter-spacing: .08em; }
    .title { font: 800 31px "Segoe UI", Arial, sans-serif; fill: #0f172a; letter-spacing: 0; }
    .subtitle { font: 500 15px "Segoe UI", Arial, sans-serif; fill: #475569; }
    .card { fill: #ffffff; stroke: #cbd5e1; stroke-width: 1.2; }
    .card-head, .head-square { fill: #1f2937; }
    .table-name { font: 800 16px Consolas, "Courier New", monospace; fill: #ffffff; }
    .column-count { font: 700 12px "Segoe UI", Arial, sans-serif; fill: #cbd5e1; text-anchor: end; }
    .col-name { font: 700 12px Consolas, "Courier New", monospace; fill: #111827; }
    .col-type { font: 500 12px Consolas, "Courier New", monospace; fill: #475569; }
    .col-marker { font: 800 10px "Segoe UI", Arial, sans-serif; fill: #2563eb; text-anchor: middle; }
  </style>
  <rect class="bg" x="0" y="0" width="1782" height="1970"/>
  <text class="eyebrow" x="56" y="42">TABLE DIAGRAM TU SQL - KHONG PHAI ERD</text>
  <text class="title" x="56" y="80">So do cac table trong schema</text>
  <text class="subtitle" x="56" y="108">Nguon: schema_gia_su_complete.sql | 19 table | Chi hien thi table va cot dung theo CREATE TABLE.</text>
  
      <g class="table-card">
        <rect class="card" x="56" y="132" width="395" height="328" rx="8"/>
        <rect class="card-head" x="56" y="132" width="395" height="46" rx="8"/>
        <rect class="head-square" x="56" y="162" width="395" height="16"/>
        <text class="table-name" x="74" y="162">hoc_vien</text>
        <text class="column-count" x="433" y="162">12 cot</text>
        
        <text class="col-name" x="74" y="199">ma_hoc_vien</text>
        <text class="col-type" x="271" y="199">VARCHAR(20)</text>
        <text class="col-marker" x="410" y="199">PK</text>

        <text class="col-name" x="74" y="221">ho_ten</text>
        <text class="col-type" x="271" y="221">NVARCHAR(100)</text>
        <text class="col-marker" x="410" y="221">NN</text>

        <text class="col-name" x="74" y="243">ngay_sinh</text>
        <text class="col-type" x="271" y="243">DATE</text>
        

        <text class="col-name" x="74" y="265">gioi_tinh</text>
        <text class="col-type" x="271" y="265">NVARCHAR(10)</text>
        

        <text class="col-name" x="74" y="287">so_dien_thoai</text>
        <text class="col-type" x="271" y="287">VARCHAR(15)</text>
        

        <text class="col-name" x="74" y="309">email</text>
        <text class="col-type" x="271" y="309">VARCHAR(150)</text>
        

        <text class="col-name" x="74" y="331">dia_chi</text>
        <text class="col-type" x="271" y="331">NVARCHAR(MAX)</text>
        

        <text class="col-name" x="74" y="353">anh_dai_dien</text>
        <text class="col-type" x="271" y="353">NVARCHAR(MAX)</text>
        

        <text class="col-name" x="74" y="375">khoi_hien_tai</text>
        <text class="col-type" x="271" y="375">NVARCHAR(20)</text>
        

        <text class="col-name" x="74" y="397">auth_id</text>
        <text class="col-type" x="271" y="397">UNIQUEIDENTIFIER</text>
        

        <text class="col-name" x="74" y="419">ngay_tao</text>
        <text class="col-type" x="271" y="419">DATETIME</text>
        <text class="col-marker" x="410" y="419">NN</text>

        <text class="col-name" x="74" y="441">ngay_cap_nhat</text>
        <text class="col-type" x="271" y="441">DATETIME</text>
        <text class="col-marker" x="410" y="441">NN</text>
      </g>

      <g class="table-card">
        <rect class="card" x="481" y="132" width="395" height="372" rx="8"/>
        <rect class="card-head" x="481" y="132" width="395" height="46" rx="8"/>
        <rect class="head-square" x="481" y="162" width="395" height="16"/>
        <text class="table-name" x="499" y="162">gia_su</text>
        <text class="column-count" x="858" y="162">14 cot</text>
        
        <text class="col-name" x="499" y="199">ma_gia_su</text>
        <text class="col-type" x="696" y="199">VARCHAR(20)</text>
        <text class="col-marker" x="835" y="199">PK</text>

        <text class="col-name" x="499" y="221">ho_ten</text>
        <text class="col-type" x="696" y="221">NVARCHAR(100)</text>
        <text class="col-marker" x="835" y="221">NN</text>

        <text class="col-name" x="499" y="243">ngay_sinh</text>
        <text class="col-type" x="696" y="243">DATE</text>
        

        <text class="col-name" x="499" y="265">gioi_tinh</text>
        <text class="col-type" x="696" y="265">NVARCHAR(10)</text>
        

        <text class="col-name" x="499" y="287">so_dien_thoai</text>
        <text class="col-type" x="696" y="287">VARCHAR(15)</text>
        

        <text class="col-name" x="499" y="309">email</text>
        <text class="col-type" x="696" y="309">VARCHAR(150)</text>
        

        <text class="col-name" x="499" y="331">dia_chi</text>
        <text class="col-type" x="696" y="331">NVARCHAR(MAX)</text>
        

        <text class="col-name" x="499" y="353">anh_dai_dien</text>
        <text class="col-type" x="696" y="353">NVARCHAR(MAX)</text>
        

        <text class="col-name" x="499" y="375">trinh_do</text>
        <text class="col-type" x="696" y="375">NVARCHAR(200)</text>
        

        <text class="col-name" x="499" y="397">gioi_thieu</text>
        <text class="col-type" x="696" y="397">NVARCHAR(MAX)</text>
        

        <text class="col-name" x="499" y="419">trong_lich</text>
        <text class="col-type" x="696" y="419">BIT</text>
        <text class="col-marker" x="835" y="419">NN</text>

        <text class="col-name" x="499" y="441">auth_id</text>
        <text class="col-type" x="696" y="441">UNIQUEIDENTIFIER</text>
        

        <text class="col-name" x="499" y="463">ngay_tao</text>
        <text class="col-type" x="696" y="463">DATETIME</text>
        <text class="col-marker" x="835" y="463">NN</text>

        <text class="col-name" x="499" y="485">ngay_cap_nhat</text>
        <text class="col-type" x="696" y="485">DATETIME</text>
        <text class="col-marker" x="835" y="485">NN</text>
      </g>

      <g class="table-card">
        <rect class="card" x="906" y="132" width="395" height="152" rx="8"/>
        <rect class="card-head" x="906" y="132" width="395" height="46" rx="8"/>
        <rect class="head-square" x="906" y="162" width="395" height="16"/>
        <text class="table-name" x="924" y="162">mon_hoc</text>
        <text class="column-count" x="1283" y="162">4 cot</text>
        
        <text class="col-name" x="924" y="199">ma_mon</text>
        <text class="col-type" x="1121" y="199">VARCHAR(20)</text>
        <text class="col-marker" x="1260" y="199">PK</text>

        <text class="col-name" x="924" y="221">ten_mon</text>
        <text class="col-type" x="1121" y="221">NVARCHAR(100)</text>
        <text class="col-marker" x="1260" y="221">NN</text>

        <text class="col-name" x="924" y="243">cap_hoc</text>
        <text class="col-type" x="1121" y="243">NVARCHAR(50)</text>
        <text class="col-marker" x="1260" y="243">NN</text>

        <text class="col-name" x="924" y="265">mo_ta</text>
        <text class="col-type" x="1121" y="265">NVARCHAR(MAX)</text>
        
      </g>

      <g class="table-card">
        <rect class="card" x="1331" y="132" width="395" height="174" rx="8"/>
        <rect class="card-head" x="1331" y="132" width="395" height="46" rx="8"/>
        <rect class="head-square" x="1331" y="162" width="395" height="16"/>
        <text class="table-name" x="1349" y="162">gia_su_mon_hoc</text>
        <text class="column-count" x="1708" y="162">5 cot</text>
        
        <text class="col-name" x="1349" y="199">ma_gia_su</text>
        <text class="col-type" x="1546" y="199">VARCHAR(20)</text>
        <text class="col-marker" x="1685" y="199">NN</text>

        <text class="col-name" x="1349" y="221">ma_mon</text>
        <text class="col-type" x="1546" y="221">VARCHAR(20)</text>
        <text class="col-marker" x="1685" y="221">NN</text>

        <text class="col-name" x="1349" y="243">nam_kinh_nghiem</text>
        <text class="col-type" x="1546" y="243">INT</text>
        <text class="col-marker" x="1685" y="243">NN</text>

        <text class="col-name" x="1349" y="265">muc_do_thanh_thao</text>
        <text class="col-type" x="1546" y="265">NVARCHAR(20)</text>
        

        <text class="col-name" x="1349" y="287">chung_chi</text>
        <text class="col-type" x="1546" y="287">NVARCHAR(MAX)</text>
        
      </g>

      <g class="table-card">
        <rect class="card" x="56" y="534" width="395" height="372" rx="8"/>
        <rect class="card-head" x="56" y="534" width="395" height="46" rx="8"/>
        <rect class="head-square" x="56" y="564" width="395" height="16"/>
        <text class="table-name" x="74" y="564">yeu_cau_lop</text>
        <text class="column-count" x="433" y="564">14 cot</text>
        
        <text class="col-name" x="74" y="601">ma_yeu_cau</text>
        <text class="col-type" x="271" y="601">VARCHAR(20)</text>
        <text class="col-marker" x="410" y="601">PK</text>

        <text class="col-name" x="74" y="623">ma_hoc_vien</text>
        <text class="col-type" x="271" y="623">VARCHAR(20)</text>
        <text class="col-marker" x="410" y="623">NN</text>

        <text class="col-name" x="74" y="645">tieu_de</text>
        <text class="col-type" x="271" y="645">NVARCHAR(200)</text>
        <text class="col-marker" x="410" y="645">NN</text>

        <text class="col-name" x="74" y="667">mo_ta</text>
        <text class="col-type" x="271" y="667">NVARCHAR(MAX)</text>
        

        <text class="col-name" x="74" y="689">tien_hoc_phi</text>
        <text class="col-type" x="271" y="689">DECIMAL(12,0)</text>
        <text class="col-marker" x="410" y="689">NN</text>

        <text class="col-name" x="74" y="711">dia_chi</text>
        <text class="col-type" x="271" y="711">NVARCHAR(MAX)</text>
        <text class="col-marker" x="410" y="711">NN</text>

        <text class="col-name" x="74" y="733">hinh_thuc_hoc</text>
        <text class="col-type" x="271" y="733">VARCHAR(20)</text>
        <text class="col-marker" x="410" y="733">NN</text>

        <text class="col-name" x="74" y="755">so_buoi_tuan</text>
        <text class="col-type" x="271" y="755">SMALLINT</text>
        <text class="col-marker" x="410" y="755">NN</text>

        <text class="col-name" x="74" y="777">thoi_gian_mong_muon</text>
        <text class="col-type" x="271" y="777">NVARCHAR(MAX)</text>
        

        <text class="col-name" x="74" y="799">ngay_yeu_cau</text>
        <text class="col-type" x="271" y="799">DATETIME</text>
        <text class="col-marker" x="410" y="799">NN</text>

        <text class="col-name" x="74" y="821">trang_thai</text>
        <text class="col-type" x="271" y="821">VARCHAR(20)</text>
        <text class="col-marker" x="410" y="821">NN</text>

        <text class="col-name" x="74" y="843">ma_gia_su_duoc_chon</text>
        <text class="col-type" x="271" y="843">VARCHAR(20)</text>
        

        <text class="col-name" x="74" y="865">ngay_chon_gia_su</text>
        <text class="col-type" x="271" y="865">DATETIME</text>
        

        <text class="col-name" x="74" y="887">ngay_cap_nhat</text>
        <text class="col-type" x="271" y="887">DATETIME</text>
        <text class="col-marker" x="410" y="887">NN</text>
      </g>

      <g class="table-card">
        <rect class="card" x="481" y="534" width="395" height="152" rx="8"/>
        <rect class="card-head" x="481" y="534" width="395" height="46" rx="8"/>
        <rect class="head-square" x="481" y="564" width="395" height="16"/>
        <text class="table-name" x="499" y="564">yeu_cau_mon</text>
        <text class="column-count" x="858" y="564">4 cot</text>
        
        <text class="col-name" x="499" y="601">ma_yeu_cau</text>
        <text class="col-type" x="696" y="601">VARCHAR(20)</text>
        <text class="col-marker" x="835" y="601">NN</text>

        <text class="col-name" x="499" y="623">ma_mon</text>
        <text class="col-type" x="696" y="623">VARCHAR(20)</text>
        <text class="col-marker" x="835" y="623">NN</text>

        <text class="col-name" x="499" y="645">vai_tro_mon</text>
        <text class="col-type" x="696" y="645">NVARCHAR(20)</text>
        <text class="col-marker" x="835" y="645">NN</text>

        <text class="col-name" x="499" y="667">ghi_chu</text>
        <text class="col-type" x="696" y="667">NVARCHAR(MAX)</text>
        
      </g>

      <g class="table-card">
        <rect class="card" x="906" y="534" width="395" height="240" rx="8"/>
        <rect class="card-head" x="906" y="534" width="395" height="46" rx="8"/>
        <rect class="head-square" x="906" y="564" width="395" height="16"/>
        <text class="table-name" x="924" y="564">ung_tuyen</text>
        <text class="column-count" x="1283" y="564">8 cot</text>
        
        <text class="col-name" x="924" y="601">ma_ung_tuyen</text>
        <text class="col-type" x="1121" y="601">VARCHAR(30)</text>
        <text class="col-marker" x="1260" y="601">PK</text>

        <text class="col-name" x="924" y="623">ma_yeu_cau</text>
        <text class="col-type" x="1121" y="623">VARCHAR(20)</text>
        <text class="col-marker" x="1260" y="623">NN</text>

        <text class="col-name" x="924" y="645">ma_gia_su</text>
        <text class="col-type" x="1121" y="645">VARCHAR(20)</text>
        <text class="col-marker" x="1260" y="645">NN</text>

        <text class="col-name" x="924" y="667">thu_nhap_mong_muon</text>
        <text class="col-type" x="1121" y="667">DECIMAL(12,0)</text>
        

        <text class="col-name" x="924" y="689">loi_nhan</text>
        <text class="col-type" x="1121" y="689">NVARCHAR(MAX)</text>
        

        <text class="col-name" x="924" y="711">trang_thai</text>
        <text class="col-type" x="1121" y="711">VARCHAR(20)</text>
        <text class="col-marker" x="1260" y="711">NN</text>

        <text class="col-name" x="924" y="733">ngay_ung_tuyen</text>
        <text class="col-type" x="1121" y="733">DATETIME</text>
        <text class="col-marker" x="1260" y="733">NN</text>

        <text class="col-name" x="924" y="755">ngay_xu_ly</text>
        <text class="col-type" x="1121" y="755">DATETIME</text>
        
      </g>

      <g class="table-card">
        <rect class="card" x="1331" y="534" width="395" height="372" rx="8"/>
        <rect class="card-head" x="1331" y="534" width="395" height="46" rx="8"/>
        <rect class="head-square" x="1331" y="564" width="395" height="16"/>
        <text class="table-name" x="1349" y="564">lop_hoc</text>
        <text class="column-count" x="1708" y="564">14 cot</text>
        
        <text class="col-name" x="1349" y="601">ma_lop</text>
        <text class="col-type" x="1546" y="601">VARCHAR(20)</text>
        <text class="col-marker" x="1685" y="601">PK</text>

        <text class="col-name" x="1349" y="623">ma_gia_su</text>
        <text class="col-type" x="1546" y="623">VARCHAR(20)</text>
        <text class="col-marker" x="1685" y="623">NN</text>

        <text class="col-name" x="1349" y="645">ma_hoc_vien</text>
        <text class="col-type" x="1546" y="645">VARCHAR(20)</text>
        <text class="col-marker" x="1685" y="645">NN</text>

        <text class="col-name" x="1349" y="667">ma_yeu_cau</text>
        <text class="col-type" x="1546" y="667">VARCHAR(20)</text>
        

        <text class="col-name" x="1349" y="689">ma_ung_tuyen</text>
        <text class="col-type" x="1546" y="689">VARCHAR(30)</text>
        

        <text class="col-name" x="1349" y="711">hoc_phi</text>
        <text class="col-type" x="1546" y="711">DECIMAL(12,0)</text>
        <text class="col-marker" x="1685" y="711">NN</text>

        <text class="col-name" x="1349" y="733">dia_chi</text>
        <text class="col-type" x="1546" y="733">NVARCHAR(MAX)</text>
        <text class="col-marker" x="1685" y="733">NN</text>

        <text class="col-name" x="1349" y="755">hinh_thuc_day</text>
        <text class="col-type" x="1546" y="755">VARCHAR(20)</text>
        <text class="col-marker" x="1685" y="755">NN</text>

        <text class="col-name" x="1349" y="777">ngay_bat_dau</text>
        <text class="col-type" x="1546" y="777">DATE</text>
        <text class="col-marker" x="1685" y="777">NN</text>

        <text class="col-name" x="1349" y="799">ngay_ket_thuc</text>
        <text class="col-type" x="1546" y="799">DATE</text>
        

        <text class="col-name" x="1349" y="821">trang_thai</text>
        <text class="col-type" x="1546" y="821">VARCHAR(20)</text>
        <text class="col-marker" x="1685" y="821">NN</text>

        <text class="col-name" x="1349" y="843">so_hv_toi_da</text>
        <text class="col-type" x="1546" y="843">SMALLINT</text>
        <text class="col-marker" x="1685" y="843">NN</text>

        <text class="col-name" x="1349" y="865">tong_so_buoi</text>
        <text class="col-type" x="1546" y="865">INT</text>
        <text class="col-marker" x="1685" y="865">NN</text>

        <text class="col-name" x="1349" y="887">ngay_tao</text>
        <text class="col-type" x="1546" y="887">DATETIME</text>
        <text class="col-marker" x="1685" y="887">NN</text>
      </g>

      <g class="table-card">
        <rect class="card" x="56" y="936" width="395" height="174" rx="8"/>
        <rect class="card-head" x="56" y="936" width="395" height="46" rx="8"/>
        <rect class="head-square" x="56" y="966" width="395" height="16"/>
        <text class="table-name" x="74" y="966">lop_hoc_mon</text>
        <text class="column-count" x="433" y="966">5 cot</text>
        
        <text class="col-name" x="74" y="1003">ma_lop</text>
        <text class="col-type" x="271" y="1003">VARCHAR(20)</text>
        <text class="col-marker" x="410" y="1003">NN</text>

        <text class="col-name" x="74" y="1025">ma_mon</text>
        <text class="col-type" x="271" y="1025">VARCHAR(20)</text>
        <text class="col-marker" x="410" y="1025">NN</text>

        <text class="col-name" x="74" y="1047">vai_tro_mon</text>
        <text class="col-type" x="271" y="1047">NVARCHAR(20)</text>
        <text class="col-marker" x="410" y="1047">NN</text>

        <text class="col-name" x="74" y="1069">so_buoi_du_kien</text>
        <text class="col-type" x="271" y="1069">INT</text>
        

        <text class="col-name" x="74" y="1091">ghi_chu</text>
        <text class="col-type" x="271" y="1091">NVARCHAR(MAX)</text>
        
      </g>

      <g class="table-card">
        <rect class="card" x="481" y="936" width="395" height="174" rx="8"/>
        <rect class="card-head" x="481" y="936" width="395" height="46" rx="8"/>
        <rect class="head-square" x="481" y="966" width="395" height="16"/>
        <text class="table-name" x="499" y="966">lich_hoc</text>
        <text class="column-count" x="858" y="966">5 cot</text>
        
        <text class="col-name" x="499" y="1003">ma_lich</text>
        <text class="col-type" x="696" y="1003">VARCHAR(20)</text>
        <text class="col-marker" x="835" y="1003">PK</text>

        <text class="col-name" x="499" y="1025">ma_lop</text>
        <text class="col-type" x="696" y="1025">VARCHAR(20)</text>
        <text class="col-marker" x="835" y="1025">NN</text>

        <text class="col-name" x="499" y="1047">thu_trong_tuan</text>
        <text class="col-type" x="696" y="1047">SMALLINT</text>
        <text class="col-marker" x="835" y="1047">NN</text>

        <text class="col-name" x="499" y="1069">gio_bat_dau</text>
        <text class="col-type" x="696" y="1069">TIME</text>
        <text class="col-marker" x="835" y="1069">NN</text>

        <text class="col-name" x="499" y="1091">gio_ket_thuc</text>
        <text class="col-type" x="696" y="1091">TIME</text>
        <text class="col-marker" x="835" y="1091">NN</text>
      </g>

      <g class="table-card">
        <rect class="card" x="906" y="936" width="395" height="240" rx="8"/>
        <rect class="card-head" x="906" y="936" width="395" height="46" rx="8"/>
        <rect class="head-square" x="906" y="966" width="395" height="16"/>
        <text class="table-name" x="924" y="966">buoi_hoc</text>
        <text class="column-count" x="1283" y="966">8 cot</text>
        
        <text class="col-name" x="924" y="1003">ma_buoi_hoc</text>
        <text class="col-type" x="1121" y="1003">VARCHAR(20)</text>
        <text class="col-marker" x="1260" y="1003">PK</text>

        <text class="col-name" x="924" y="1025">ma_lop</text>
        <text class="col-type" x="1121" y="1025">VARCHAR(20)</text>
        <text class="col-marker" x="1260" y="1025">NN</text>

        <text class="col-name" x="924" y="1047">ma_lich</text>
        <text class="col-type" x="1121" y="1047">VARCHAR(20)</text>
        

        <text class="col-name" x="924" y="1069">ngay_hoc</text>
        <text class="col-type" x="1121" y="1069">DATE</text>
        <text class="col-marker" x="1260" y="1069">NN</text>

        <text class="col-name" x="924" y="1091">gio_bat_dau</text>
        <text class="col-type" x="1121" y="1091">TIME</text>
        <text class="col-marker" x="1260" y="1091">NN</text>

        <text class="col-name" x="924" y="1113">gio_ket_thuc</text>
        <text class="col-type" x="1121" y="1113">TIME</text>
        <text class="col-marker" x="1260" y="1113">NN</text>

        <text class="col-name" x="924" y="1135">trang_thai</text>
        <text class="col-type" x="1121" y="1135">VARCHAR(20)</text>
        <text class="col-marker" x="1260" y="1135">NN</text>

        <text class="col-name" x="924" y="1157">ghi_chu</text>
        <text class="col-type" x="1121" y="1157">NVARCHAR(MAX)</text>
        
      </g>

      <g class="table-card">
        <rect class="card" x="1331" y="936" width="395" height="196" rx="8"/>
        <rect class="card-head" x="1331" y="936" width="395" height="46" rx="8"/>
        <rect class="head-square" x="1331" y="966" width="395" height="16"/>
        <text class="table-name" x="1349" y="966">dang_ky</text>
        <text class="column-count" x="1708" y="966">6 cot</text>
        
        <text class="col-name" x="1349" y="1003">ma_dang_ky</text>
        <text class="col-type" x="1546" y="1003">VARCHAR(20)</text>
        <text class="col-marker" x="1685" y="1003">PK</text>

        <text class="col-name" x="1349" y="1025">ma_hoc_vien</text>
        <text class="col-type" x="1546" y="1025">VARCHAR(20)</text>
        <text class="col-marker" x="1685" y="1025">NN</text>

        <text class="col-name" x="1349" y="1047">ma_lop</text>
        <text class="col-type" x="1546" y="1047">VARCHAR(20)</text>
        <text class="col-marker" x="1685" y="1047">NN</text>

        <text class="col-name" x="1349" y="1069">ngay_dang_ky</text>
        <text class="col-type" x="1546" y="1069">DATETIME</text>
        <text class="col-marker" x="1685" y="1069">NN</text>

        <text class="col-name" x="1349" y="1091">trang_thai</text>
        <text class="col-type" x="1546" y="1091">VARCHAR(20)</text>
        <text class="col-marker" x="1685" y="1091">NN</text>

        <text class="col-name" x="1349" y="1113">ghi_chu</text>
        <text class="col-type" x="1546" y="1113">NVARCHAR(MAX)</text>
        
      </g>

      <g class="table-card">
        <rect class="card" x="56" y="1206" width="395" height="218" rx="8"/>
        <rect class="card-head" x="56" y="1206" width="395" height="46" rx="8"/>
        <rect class="head-square" x="56" y="1236" width="395" height="16"/>
        <text class="table-name" x="74" y="1236">tai_khoan_hv</text>
        <text class="column-count" x="433" y="1236">7 cot</text>
        
        <text class="col-name" x="74" y="1273">ma_tk_hv</text>
        <text class="col-type" x="271" y="1273">VARCHAR(20)</text>
        <text class="col-marker" x="410" y="1273">PK</text>

        <text class="col-name" x="74" y="1295">ma_hoc_vien</text>
        <text class="col-type" x="271" y="1295">VARCHAR(20)</text>
        <text class="col-marker" x="410" y="1295">NN</text>

        <text class="col-name" x="74" y="1317">so_tai_khoan</text>
        <text class="col-type" x="271" y="1317">VARCHAR(30)</text>
        <text class="col-marker" x="410" y="1317">NN</text>

        <text class="col-name" x="74" y="1339">nha_cung_cap</text>
        <text class="col-type" x="271" y="1339">NVARCHAR(100)</text>
        <text class="col-marker" x="410" y="1339">NN</text>

        <text class="col-name" x="74" y="1361">loai_phuong_thuc</text>
        <text class="col-type" x="271" y="1361">VARCHAR(30)</text>
        <text class="col-marker" x="410" y="1361">NN</text>

        <text class="col-name" x="74" y="1383">ten_chu_tk</text>
        <text class="col-type" x="271" y="1383">NVARCHAR(100)</text>
        <text class="col-marker" x="410" y="1383">NN</text>

        <text class="col-name" x="74" y="1405">la_mac_dinh</text>
        <text class="col-type" x="271" y="1405">BIT</text>
        <text class="col-marker" x="410" y="1405">NN</text>
      </g>

      <g class="table-card">
        <rect class="card" x="481" y="1206" width="395" height="218" rx="8"/>
        <rect class="card-head" x="481" y="1206" width="395" height="46" rx="8"/>
        <rect class="head-square" x="481" y="1236" width="395" height="16"/>
        <text class="table-name" x="499" y="1236">tai_khoan_gs</text>
        <text class="column-count" x="858" y="1236">7 cot</text>
        
        <text class="col-name" x="499" y="1273">ma_tk_gs</text>
        <text class="col-type" x="696" y="1273">VARCHAR(20)</text>
        <text class="col-marker" x="835" y="1273">PK</text>

        <text class="col-name" x="499" y="1295">ma_gia_su</text>
        <text class="col-type" x="696" y="1295">VARCHAR(20)</text>
        <text class="col-marker" x="835" y="1295">NN</text>

        <text class="col-name" x="499" y="1317">so_tai_khoan</text>
        <text class="col-type" x="696" y="1317">VARCHAR(30)</text>
        <text class="col-marker" x="835" y="1317">NN</text>

        <text class="col-name" x="499" y="1339">nha_cung_cap</text>
        <text class="col-type" x="696" y="1339">NVARCHAR(100)</text>
        <text class="col-marker" x="835" y="1339">NN</text>

        <text class="col-name" x="499" y="1361">loai_phuong_thuc</text>
        <text class="col-type" x="696" y="1361">VARCHAR(30)</text>
        <text class="col-marker" x="835" y="1361">NN</text>

        <text class="col-name" x="499" y="1383">ten_chu_tk</text>
        <text class="col-type" x="696" y="1383">NVARCHAR(100)</text>
        <text class="col-marker" x="835" y="1383">NN</text>

        <text class="col-name" x="499" y="1405">la_mac_dinh</text>
        <text class="col-type" x="696" y="1405">BIT</text>
        <text class="col-marker" x="835" y="1405">NN</text>
      </g>

      <g class="table-card">
        <rect class="card" x="906" y="1206" width="395" height="350" rx="8"/>
        <rect class="card-head" x="906" y="1206" width="395" height="46" rx="8"/>
        <rect class="head-square" x="906" y="1236" width="395" height="16"/>
        <text class="table-name" x="924" y="1236">giao_dich</text>
        <text class="column-count" x="1283" y="1236">13 cot</text>
        
        <text class="col-name" x="924" y="1273">ma_giao_dich</text>
        <text class="col-type" x="1121" y="1273">VARCHAR(30)</text>
        <text class="col-marker" x="1260" y="1273">PK</text>

        <text class="col-name" x="924" y="1295">ma_dang_ky</text>
        <text class="col-type" x="1121" y="1295">VARCHAR(20)</text>
        <text class="col-marker" x="1260" y="1295">NN</text>

        <text class="col-name" x="924" y="1317">ma_tk_hv</text>
        <text class="col-type" x="1121" y="1317">VARCHAR(20)</text>
        <text class="col-marker" x="1260" y="1317">NN</text>

        <text class="col-name" x="924" y="1339">ma_tk_gs</text>
        <text class="col-type" x="1121" y="1339">VARCHAR(20)</text>
        <text class="col-marker" x="1260" y="1339">NN</text>

        <text class="col-name" x="924" y="1361">tong_tien_thu</text>
        <text class="col-type" x="1121" y="1361">DECIMAL(15,0)</text>
        <text class="col-marker" x="1260" y="1361">NN</text>

        <text class="col-name" x="924" y="1383">ty_le_hoa_hong</text>
        <text class="col-type" x="1121" y="1383">DECIMAL(5,2)</text>
        <text class="col-marker" x="1260" y="1383">NN</text>

        <text class="col-name" x="924" y="1405">phi_hoa_hong</text>
        <text class="col-type" x="1121" y="1405">DECIMAL(15,0)</text>
        <text class="col-marker" x="1260" y="1405">NN</text>

        <text class="col-name" x="924" y="1427">so_tien_gia_su_nhan</text>
        <text class="col-type" x="1121" y="1427">DECIMAL(15,0)</text>
        <text class="col-marker" x="1260" y="1427">NN</text>

        <text class="col-name" x="924" y="1449">ngay_thanh_toan</text>
        <text class="col-type" x="1121" y="1449">DATETIME</text>
        <text class="col-marker" x="1260" y="1449">NN</text>

        <text class="col-name" x="924" y="1471">ngay_doi_soat</text>
        <text class="col-type" x="1121" y="1471">DATETIME</text>
        

        <text class="col-name" x="924" y="1493">trang_thai</text>
        <text class="col-type" x="1121" y="1493">VARCHAR(20)</text>
        <text class="col-marker" x="1260" y="1493">NN</text>

        <text class="col-name" x="924" y="1515">loai_giao_dich</text>
        <text class="col-type" x="1121" y="1515">VARCHAR(30)</text>
        <text class="col-marker" x="1260" y="1515">NN</text>

        <text class="col-name" x="924" y="1537">ma_tham_chieu</text>
        <text class="col-type" x="1121" y="1537">VARCHAR(100)</text>
        
      </g>

      <g class="table-card">
        <rect class="card" x="1331" y="1206" width="395" height="174" rx="8"/>
        <rect class="card-head" x="1331" y="1206" width="395" height="46" rx="8"/>
        <rect class="head-square" x="1331" y="1236" width="395" height="16"/>
        <text class="table-name" x="1349" y="1236">danh_gia</text>
        <text class="column-count" x="1708" y="1236">5 cot</text>
        
        <text class="col-name" x="1349" y="1273">ma_danh_gia</text>
        <text class="col-type" x="1546" y="1273">VARCHAR(20)</text>
        <text class="col-marker" x="1685" y="1273">PK</text>

        <text class="col-name" x="1349" y="1295">ma_dang_ky</text>
        <text class="col-type" x="1546" y="1295">VARCHAR(20)</text>
        <text class="col-marker" x="1685" y="1295">NN</text>

        <text class="col-name" x="1349" y="1317">diem_sao</text>
        <text class="col-type" x="1546" y="1317">SMALLINT</text>
        <text class="col-marker" x="1685" y="1317">NN</text>

        <text class="col-name" x="1349" y="1339">nhan_xet</text>
        <text class="col-type" x="1546" y="1339">NVARCHAR(MAX)</text>
        

        <text class="col-name" x="1349" y="1361">ngay_danh_gia</text>
        <text class="col-type" x="1546" y="1361">DATETIME</text>
        <text class="col-marker" x="1685" y="1361">NN</text>
      </g>

      <g class="table-card">
        <rect class="card" x="56" y="1586" width="395" height="174" rx="8"/>
        <rect class="card-head" x="56" y="1586" width="395" height="46" rx="8"/>
        <rect class="head-square" x="56" y="1616" width="395" height="16"/>
        <text class="table-name" x="74" y="1616">diem_danh</text>
        <text class="column-count" x="433" y="1616">5 cot</text>
        
        <text class="col-name" x="74" y="1653">ma_buoi_hoc</text>
        <text class="col-type" x="271" y="1653">VARCHAR(20)</text>
        <text class="col-marker" x="410" y="1653">NN</text>

        <text class="col-name" x="74" y="1675">ma_dang_ky</text>
        <text class="col-type" x="271" y="1675">VARCHAR(20)</text>
        <text class="col-marker" x="410" y="1675">NN</text>

        <text class="col-name" x="74" y="1697">trang_thai</text>
        <text class="col-type" x="271" y="1697">VARCHAR(20)</text>
        <text class="col-marker" x="410" y="1697">NN</text>

        <text class="col-name" x="74" y="1719">so_phut_hoc</text>
        <text class="col-type" x="271" y="1719">INT</text>
        

        <text class="col-name" x="74" y="1741">ghi_chu</text>
        <text class="col-type" x="271" y="1741">NVARCHAR(MAX)</text>
        
      </g>

      <g class="table-card">
        <rect class="card" x="481" y="1586" width="395" height="328" rx="8"/>
        <rect class="card-head" x="481" y="1586" width="395" height="46" rx="8"/>
        <rect class="head-square" x="481" y="1616" width="395" height="16"/>
        <text class="table-name" x="499" y="1616">thong_bao</text>
        <text class="column-count" x="858" y="1616">12 cot</text>
        
        <text class="col-name" x="499" y="1653">ma_thong_bao</text>
        <text class="col-type" x="696" y="1653">VARCHAR(40)</text>
        <text class="col-marker" x="835" y="1653">PK</text>

        <text class="col-name" x="499" y="1675">ma_hoc_vien</text>
        <text class="col-type" x="696" y="1675">VARCHAR(20)</text>
        

        <text class="col-name" x="499" y="1697">ma_gia_su</text>
        <text class="col-type" x="696" y="1697">VARCHAR(20)</text>
        

        <text class="col-name" x="499" y="1719">loai_thong_bao</text>
        <text class="col-type" x="696" y="1719">VARCHAR(30)</text>
        <text class="col-marker" x="835" y="1719">NN</text>

        <text class="col-name" x="499" y="1741">tieu_de</text>
        <text class="col-type" x="696" y="1741">NVARCHAR(200)</text>
        <text class="col-marker" x="835" y="1741">NN</text>

        <text class="col-name" x="499" y="1763">noi_dung</text>
        <text class="col-type" x="696" y="1763">NVARCHAR(MAX)</text>
        <text class="col-marker" x="835" y="1763">NN</text>

        <text class="col-name" x="499" y="1785">da_doc</text>
        <text class="col-type" x="696" y="1785">BIT</text>
        <text class="col-marker" x="835" y="1785">NN</text>

        <text class="col-name" x="499" y="1807">ngay_tao</text>
        <text class="col-type" x="696" y="1807">DATETIME</text>
        <text class="col-marker" x="835" y="1807">NN</text>

        <text class="col-name" x="499" y="1829">ma_yeu_cau</text>
        <text class="col-type" x="696" y="1829">VARCHAR(20)</text>
        

        <text class="col-name" x="499" y="1851">ma_lop</text>
        <text class="col-type" x="696" y="1851">VARCHAR(20)</text>
        

        <text class="col-name" x="499" y="1873">ma_giao_dich</text>
        <text class="col-type" x="696" y="1873">VARCHAR(30)</text>
        

        <text class="col-name" x="499" y="1895">ma_buoi_hoc</text>
        <text class="col-type" x="696" y="1895">VARCHAR(20)</text>
        
      </g>

      <g class="table-card">
        <rect class="card" x="906" y="1586" width="395" height="240" rx="8"/>
        <rect class="card-head" x="906" y="1586" width="395" height="46" rx="8"/>
        <rect class="head-square" x="906" y="1616" width="395" height="16"/>
        <text class="table-name" x="924" y="1616">audit_log</text>
        <text class="column-count" x="1283" y="1616">8 cot</text>
        
        <text class="col-name" x="924" y="1653">id</text>
        <text class="col-type" x="1121" y="1653">BIGINT</text>
        <text class="col-marker" x="1260" y="1653">PK</text>

        <text class="col-name" x="924" y="1675">table_name</text>
        <text class="col-type" x="1121" y="1675">VARCHAR(50)</text>
        <text class="col-marker" x="1260" y="1675">NN</text>

        <text class="col-name" x="924" y="1697">record_id</text>
        <text class="col-type" x="1121" y="1697">VARCHAR(30)</text>
        <text class="col-marker" x="1260" y="1697">NN</text>

        <text class="col-name" x="924" y="1719">action</text>
        <text class="col-type" x="1121" y="1719">VARCHAR(10)</text>
        <text class="col-marker" x="1260" y="1719">NN</text>

        <text class="col-name" x="924" y="1741">old_data</text>
        <text class="col-type" x="1121" y="1741">NVARCHAR(MAX)</text>
        

        <text class="col-name" x="924" y="1763">new_data</text>
        <text class="col-type" x="1121" y="1763">NVARCHAR(MAX)</text>
        

        <text class="col-name" x="924" y="1785">changed_by</text>
        <text class="col-type" x="1121" y="1785">VARCHAR(100)</text>
        

        <text class="col-name" x="924" y="1807">changed_at</text>
        <text class="col-type" x="1121" y="1807">DATETIME</text>
        <text class="col-marker" x="1260" y="1807">NN</text>
      </g>
</svg>